<svg width="18" height="18" viewBox="0 0 18 18" fill="none" xmlns="http://www.w3.org/2000/svg">
<g id="padlock 1">
<g id="Group">
<path id="Vector" d="M9.0004 0.529297C6.35334 0.529297 4.2357 2.64694 4.2357 5.294V7.41165C3.3357 7.41165 2.64746 8.09989 2.64746 8.99989V15.8822C2.64746 16.7822 3.3357 17.4705 4.2357 17.4705H13.7651C14.6651 17.4705 15.3533 16.7822 15.3533 15.8822V8.99989C15.3533 8.09989 14.6651 7.41165 13.7651 7.41165V5.294C13.7651 2.64694 11.6475 0.529297 9.0004 0.529297ZM14.2945 8.99989V15.8822C14.2945 16.1999 14.0828 16.4117 13.7651 16.4117H4.2357C3.91805 16.4117 3.70628 16.1999 3.70628 15.8822V8.99989C3.70628 8.68224 3.91805 8.47047 4.2357 8.47047H4.76511H13.2357H13.7651C14.0828 8.47047 14.2945 8.68224 14.2945 8.99989ZM5.29452 7.41165V5.294C5.29452 3.2293 6.9357 1.58812 9.0004 1.58812C11.0651 1.58812 12.7063 3.2293 12.7063 5.294V7.41165H5.29452Z" fill="#6A778B"/>
<path id="Vector_2" d="M9.00034 10.0586C8.10034 10.0586 7.41211 10.7468 7.41211 11.6468C7.41211 12.3351 7.83564 12.9174 8.47093 13.1292V14.2939C8.47093 14.6115 8.6827 14.8233 9.00034 14.8233C9.31799 14.8233 9.52976 14.6115 9.52976 14.2939V13.1292C10.1651 12.9174 10.5886 12.3351 10.5886 11.6468C10.5886 10.7468 9.90034 10.0586 9.00034 10.0586ZM9.00034 12.1762C8.6827 12.1762 8.47093 11.9645 8.47093 11.6468C8.47093 11.3292 8.6827 11.1174 9.00034 11.1174C9.31799 11.1174 9.52976 11.3292 9.52976 11.6468C9.52976 11.9645 9.31799 12.1762 9.00034 12.1762Z" fill="#6A778B"/>
<style>
    @media (prefers-color-scheme: dark) {
        path {
            fill: #C5C5C5 !important;
        }
    }
</style>
</g>
</g>
</svg>
